#!OML:ASF E:/inclinewalkrobotboard/Project1/Captureday1/Session1/subject1.ASF
:FULLY-SPECIFIED
:DEGREES
13
root 0 0 0 42.09362039018063 -32.35041830566423 -7.17477117204265
lowerback -20.542851126102747 4.933552847274155 -5.792232793963351
upperback -13.409595446197965 6.825044433133383 -0.40867481776307235
thorax -3.4823335465592367 3.8638363365131525 3.270333414965986
lowerneck -10.002299879910025 3.5537086274657215 4.730850451815673
upperneck 33.34458096039399 2.8269037625920683 2.7506044141040595
head 12.828178200933063 2.0760272877273667 0.6086097981461336
rclavicle 1.3386257829281137E-14 1.7975309530871386E-16
rhumerus -77.43091513532977 -39.03246354908585 33.82180200969827
rradius 5.675433934497342
rwrist 81.70764506506859
rhand 17.886876766839503 0.14678421143353226
rfingers 7.125020000000061
rthumb 42.53874563001981 -24.394222980946658
lclavicle 1.116342849819981E-14 3.0966204116116075E-15
lhumerus -36.84646694981821 20.484105521254527 9.587830691981374
lradius 10.913285563300779
lwrist -48.098045456918825
lhand 4.0852609775326005 33.5157818688624
lfingers 7.125020000000039
lthumb 29.509740823625563 61.551545282286725
rfemur -56.33970651804941 6.777407614933296 16.108411678430528
rtibia 30.54460282777464
rfoot -74.51804266325635 -4.711654511911085
rtoes 60.70632790759642
lfemur -49.408765634479785 1.5633231881323653 -37.577529828526366
ltibia 24.35335439892704
lfoot -30.319362348538252 31.505620193210646
ltoes 23.43836917437809
14
root 0 0 0 41.699109779602125 -26.976937551931144 -4.866020889754451
lowerback -20.798800859533696 4.151664533592529 -7.537262574884966
upperback -14.225182995563472 5.721870628251445 -0.3054909445905989
thorax -4.229370163601261 3.483262560481286 4.390707080486235
lowerneck -9.233551569196804 3.351841209317805 4.43396464459841
upperneck 33.29179820231992 2.767122555884724 2.18711699832325
head 12.684111840212797 1.9560428906208505 0.43091575334210097
rclavicle 1.3454954054511252E-14 8.373035171763189E-16
rhumerus -72.6336781474116 -37.69909422475304 29.769659691270014
rradius 4.7160480054466625
rwrist 84.51686784183909
rhand 18.23051400556686 -0.43120087207113045
rfingers 7.125020000000063
rthumb 42.85618857760219 -24.913208005879927
lclavicle 1.0164177263709984E-14 4.296342601454053E-15
lhumerus -33.71935850825962 21.136340555050666 8.209523187577098
lradius 11.711639910359754
lwrist -47.94211100906918
lhand 3.224648928767089 33.96141470946098
lfingers 7.125020000000035
lthumb 28.699897240226207 62.14281849137259
rfemur -58.52399744336901 7.461035459465904 16.47925612100903
rtibia 32.60637543412642
rfoot -76.3989366902727 -2.966909487106637
rtoes 62.19421382696045
lfemur -48.86081215556145 0.7530184064302627 -40.507075583264196
ltibia 24.831961045722355
lfoot -24.464898937345417 31.44490822599164
ltoes 20.37857463115386
15
root 0 0 0 38.872087769028006 -20.341001314418808 0.11350998577826665
lowerback -20.18090072592145 1.7125051256957948 -10.819089171276056
upperback -15.745699967387058 2.366174614683442 0.2638936209794611
thorax -6.133719764024039 2.2143647673145495 6.872030472800827
lowerneck -7.003914989022679 2.692990866234137 3.456349570931735
upperneck 33.888083819738114 2.1162943814088764 2.1430097521501352
head 12.585989730203421 1.4959863063443029 0.4201571015475405
rclavicle 1.3516173219671387E-14 1.2502722876843693E-15
rhumerus -67.48359065667456 -36.621818198199875 26.673606846081206
rradius 4.34526777029976
rwrist 86.80176174056373
rhand 18.240793789061534 -0.8079933439805291
rfingers 7.125020000000062
rthumb 42.86073824268378 -25.29145323260154
lclavicle 9.161744038959791E-15 4.5692326818600455E-15
lhumerus -29.430195743101926 20.154375186822527 5.506753069793135
lradius 13.548633361275957
lwrist -47.10673742819465
lhand 2.7278047254287365 34.729150427346234
lfingers 7.125020000000032
lthumb 28.2456862558367 62.92697785804769
rfemur -59.604521164020724 7.566741357519703 16.567482227149384
rtibia 33.37749491435262
rfoot -77.52291129458577 -3.0435819241408026
rtoes 63.10190922959937
lfemur -46.823440903538 -0.5025464959435002 -43.88957318649818
ltibia 27.16260269749855
lfoot -17.354894846423527 30.015411913571974
ltoes 15.505855980128743
16
root 0 0 0 30.44573378350132 -15.625150067789678 5.2299774230961695
lowerback -17.44315656118141 -1.1500213212431145 -12.46210336909091
upperback -16.317734089987443 -1.3729478061855438 1.7088721592595983
thorax -8.107788457655989 0.7784677804526238 9.284612259514722
lowerneck -3.9153259807456893 1.0388497449316332 1.4872265455399971
upperneck 34.34141542675668 0.10732628804208405 3.5782821491087407
head 12.26435973846742 0.3970848500910926 0.8592037553486849
rclavicle 1.2522590115618148E-14 8.977057779496376E-16
rhumerus -66.39366381715914 -36.68087348106499 29.570906593833534
rradius 5.618313882542786
rwrist 86.66630303200823
rhand 18.113942333464237 -0.7329213150706604
rfingers 7.1250200000000605
rthumb 42.74212761117221 -25.219156742094448
lclavicle 7.999272242277885E-15 3.4202889736736065E-15
lhumerus -24.42861395832477 18.788461532475953 2.2485663424718396
lradius 15.476224540615835
lwrist -46.505910469556675
lhand 2.548920518838245 35.02874272929307
lfingers 7.125020000000027
lthumb 28.08597673798675 63.16400424240902
rfemur -60.08604137485318 7.737384139198184 16.95353076760837
rtibia 32.78171463313812
rfoot -77.43621557049829 -5.185885656848782
rtoes 63.10633420360091
lfemur -44.57519915026451 -1.90073926638801 -46.386666838785814
ltibia 30.352285786449883
lfoot -11.631519048995072 27.974572479885786
ltoes 10.560468122859158
17
root 0 0 0 16.577692881178237 -9.806189985348244 10.074484383627398
lowerback -12.429678490061729 -3.517159042116908 -11.952100812324737
upperback -14.247260022056377 -4.413761529516789 3.4267555833535583
thorax -8.528901205950886 -0.5616669854474081 10.714815408270855
lowerneck -2.9521804755375793 -1.8612344655943092 -1.3461192984726473
upperneck 33.37014584685022 -3.3709435772799488 4.53233592165064
head 11.743909225286785 -1.4494627043690251 1.1631470317836046
rclavicle 9.809548887270657E-15 -5.280139732380166E-16
rhumerus -68.0827732469304 -37.600756078833726 36.53691700898383
rradius 8.04430180733075
rwrist 83.41572381597015
rhand 18.06901352013169 -0.5416893335231627
rfingers 7.1250200000000605
rthumb 42.709655395357295 -25.00926163109924
lclavicle 4.8377352570364835E-15 7.425269809740371E-16
lhumerus -12.666750603464365 18.70743240214188 -2.13789039603828
lradius 17.688104150285064
lwrist -45.47398684475245
lhand 1.968859961315834 34.79637694185828
lfingers 7.125020000000014
lthumb 27.528169724180792 62.93406862736664
rfemur -61.131158485832515 7.843577654535395 17.62234175942021
rtibia 32.42603405511183
rfoot -78.0920163009194 -8.01238399582015
rtoes 62.9721482908208
lfemur -41.15283447786717 -4.543777122834804 -49.3740331931408
ltibia 35.18604736473859
lfoot -3.553554596165956 24.683534961905522
ltoes 2.620083546244551
18
root 0 0 0 4.426551802915402 4.836943637282303 12.25387345265907
lowerback -8.073695759655894 -4.605394056747045 -9.645490484059385
upperback -10.31597215568086 -5.796813058835406 5.191346563741962
thorax -6.581186558784962 -1.4497058668600509 11.11864377801719
lowerneck -4.873867878263978 -6.282477780957793 -4.880893903363282
upperneck 31.58177296104912 -8.463398289790165 2.7996204502634137
head 11.436295592380347 -4.201380665697095 0.6264318227869741
rclavicle 6.5189068700512135E-15 -2.431941359442264E-15
rhumerus -69.047189049148 -39.599244594907944 42.221882144505265
rradius 10.093491835089498
rwrist 78.17897335251577
rhand 17.87612573403877 -0.5414025774057922
rfingers 7.125020000000061
rthumb 42.540334829147326 -25.067227359039002
lclavicle 3.361384352793175E-16 -2.2033640151677414E-15
lhumerus 1.3682705356239317 20.804929533057024 -5.0467078362175
lradius 18.986725332616132
lwrist -44.0945800160203
lhand 1.1173419065661265 34.031181079820044
lfingers 7.125019999999999
lthumb 26.6940404161764 62.27665306911214
rfemur -63.472350230757854 8.354205918772493 18.934950176520402
rtibia 32.958307633147264
rfoot -80.34137135813546 -9.326766544448912
rtoes 62.78842171895019
lfemur -36.8630466377534 -7.696977688721519 -51.6969730225837
ltibia 41.04098190382077
lfoot 3.298718410710702 20.701977078291893
ltoes -6.43147683490667
19
root 0 0 0 -0.6611201873220907 25.23462673029589 11.161572458446015
lowerback -5.061707377254602 -5.073489484522831 -7.6730343973926365
upperback -8.318530231581196 -6.291554464894529 6.492788450471144
thorax -5.800559384731887 -1.9174664699951032 11.285772788115247
lowerneck -4.79192585575476 -8.43479631212597 -6.576398254994629
upperneck 31.530531649291568 -10.59170536180964 0.5213636902741969
head 11.506609785361443 -5.497625569535208 -0.1035876160573641
rclavicle 4.903230674455798E-15 -4.53884773729702E-15
rhumerus -64.81543445880416 -41.29535329292793 42.91383328235214
rradius 11.620484866207978
rwrist 71.61488699005791
rhand 17.554903643375155 -1.1081242737128836
rfingers 7.125020000000066
rthumb 42.24224034965679 -25.761905829432177
lclavicle -2.440810159550853E-15 -4.862796902085905E-15
lhumerus 11.859653139117093 24.04335890831851 -4.909589497724355
lradius 18.833248409099347
lwrist -42.82130196468157
lhand -0.1180727604244638 32.93681621442594
lfingers 7.125019999999987
lthumb 25.497868501233878 61.400560143969486
rfemur -66.0219250470983 9.22733252621397 20.45225020180446
rtibia 33.85512526420948
rfoot -82.98164133558545 -8.484204101328437
rtoes 62.50975879953755
lfemur -33.35252434092792 -9.46523910556751 -52.044205584234206
ltibia 46.08272888843963
lfoot 4.745038291084189 17.4571237800359
ltoes -12.333942204176251
